PathFileType	4	(X/Y/Z)	./resultDataOpenSim/trcMotMarkerGrf/sub09/qtm-01-04.trc
DataRate	CameraRate	NumFrames	NumMarkers	Units	OrigDataRate	OrigDataStartFrame	OrigNumFrames
250.000000	250.000000	13	24	m	250.000000	410	468
Frame#	Time	L.Toe.Tip			R.Toe.Tip			L.Ankle.Lat			R.Ankle.Lat			L.Ankle.Med			R.Ankle.Med			L.Heel			R.Heel			L.Knee.Lat			R.Knee.Lat			L.Knee.Med			R.Knee.Med			L.Thigh.Upper			R.Thigh.Upper			L.ASIS			R.ASIS			V.Sacral			L.Acromium			R.Acromium			C7			L.Elbow			R.Elbow			L.Wrist.Lat			R.Wrist.Lat
		X1	Y1	Z1	X2	Y2	Z2	X3	Y3	Z3	X4	Y4	Z4	X5	Y5	Z5	X6	Y6	Z6	X7	Y7	Z7	X8	Y8	Z8	X9	Y9	Z9	X10	Y10	Z10	X11	Y11	Z11	X12	Y12	Z12	X13	Y13	Z13	X14	Y14	Z14	X15	Y15	Z15	X16	Y16	Z16	X17	Y17	Z17	X18	Y18	Z18	X19	Y19	Z19	X20	Y20	Z20	X21	Y21	Z21	X22	Y22	Z22	X23	Y23	Z23	X24	Y24	Z24

410	1.636	1.7828114	0.13067019	-0.023387624	1.0524617	0.04019003	0.12055752	1.6318727	0.093821041	-0.047704322	0.91610216	0.091674117	0.15734063	1.6545184	0.1229079	0.044336114	0.93940917	0.12748499	0.067966756	1.5904463	0.02987084	0.0075100044	0.84453303	0.092532972	0.10681539	1.4840256	0.48601508	-0.0770578	1.15697	0.48593845	0.2186683	1.4923069	0.4804099	0.049417707	1.1471826	0.47913931	0.092007781	1.2870918	0.85214604	-0.10878891	1.2394488	0.88276264	0.26117447	1.3560784	0.94494144	-0.045638575	1.3489176	0.95932565	0.1959032	1.1824833	1.0006537	0.057739259	1.3221767	1.4032335	-0.10631877	1.3109261	1.4203571	0.22577778	1.2492817	1.4597591	0.058656725	1.1473568	1.0825666	-0.16456774	1.1934347	1.069047	0.33109743	1.2403735	0.84048072	-0.22047238	1.4163631	0.90017741	0.33274889
411	1.64	1.7867933	0.12608198	-0.022312306	1.0527125	0.040296188	0.12078433	1.6354078	0.091306216	-0.046984961	0.91731244	0.093410424	0.15798086	1.6581815	0.12026412	0.045032181	0.94096664	0.12904731	0.06860059	1.5930634	0.027980049	0.0079192523	0.84569318	0.095337911	0.10751535	1.4920667	0.48542662	-0.077093678	1.1621858	0.48464688	0.21925182	1.5011782	0.48053794	0.049130879	1.1537278	0.47768215	0.092315673	1.2936261	0.85126885	-0.10960075	1.24596	0.88137466	0.26058544	1.3630156	0.94394358	-0.046324869	1.3556578	0.95786905	0.19543054	1.1892884	0.99916873	0.057191455	1.3280853	1.4020221	-0.1068263	1.3168191	1.418904	0.22532511	1.2551215	1.4584008	0.058216362	1.1537973	1.0810124	-0.16514667	1.199397	1.0675481	0.33025942	1.2469327	0.83907908	-0.22122159	1.4218848	0.89825381	0.33259482
412	1.644	1.7904815	0.12145443	-0.021031797	1.0529571	0.040388252	0.1209544	1.6386804	0.088707044	-0.046175373	0.91860471	0.095226048	0.15857581	1.6615052	0.11753843	0.045816932	0.94268536	0.13069931	0.06923269	1.5953587	0.026061803	0.008381692	0.84698322	0.098301518	0.10817022	1.4996697	0.48477584	-0.077103903	1.1687637	0.48345232	0.219987	1.5099338	0.4806543	0.048748205	1.1604096	0.47619327	0.092665814	1.3002393	0.85041246	-0.1103783	1.2525866	0.87997446	0.26001062	1.3700693	0.94300882	-0.047015264	1.3624627	0.95641424	0.19492702	1.1961854	0.997715	0.056642376	1.333994	1.4008535	-0.10734268	1.3227305	1.4174789	0.22483974	1.2609244	1.4570374	0.057737633	1.1602739	1.0794934	-0.16570596	1.2052271	1.0660279	0.32929887	1.2535475	0.83772541	-0.22196072	1.4273429	0.89631615	0.33243402
413	1.648	1.7939103	0.11674267	-0.019536889	1.0531921	0.040467481	0.1210425	1.6417116	0.086029389	-0.045269818	0.92021268	0.097107526	0.15920222	1.6645269	0.11471315	0.046719838	0.94456838	0.13244285	0.069867597	1.5973089	0.02419658	0.0088989594	0.84840778	0.10143182	0.10878978	1.5069847	0.48405195	-0.077017919	1.1767323	0.48248123	0.22094787	1.5185385	0.48074012	0.048294124	1.1672317	0.47467426	0.093064913	1.306952	0.84954858	-0.11112585	1.2592973	0.87855433	0.25943966	1.377248	0.94211667	-0.047698942	1.3693352	0.95497426	0.1944033	1.20317	0.99627685	0.056080214	1.3399048	1.3997296	-0.10786362	1.3286507	1.4160828	0.22432478	1.266702	1.4556731	0.057226331	1.1667846	1.0780283	-0.16625416	1.210856	1.0644585	0.32817931	1.2602228	0.83641834	-0.22269129	1.4327278	0.89436503	0.33227214
414	1.652	1.7971368	0.11182324	-0.017873573	1.0534406	0.040557812	0.12107502	1.6445545	0.083328299	-0.044278677	0.92247664	0.099104142	0.15998757	1.6673192	0.11180745	0.047761978	0.94662225	0.13427449	0.070505156	1.598887	0.022529253	0.0094560074	0.84998366	0.10473763	0.10937005	1.5143536	0.48323661	-0.076846981	1.1853422	0.48168146	0.22201287	1.5269662	0.48075936	0.047792592	1.1742049	0.47312366	0.093514756	1.3137873	0.84866343	-0.11185393	1.2660914	0.87709913	0.25885862	1.3845415	0.94124743	-0.048360767	1.3762716	0.95356376	0.19387471	1.2102304	0.9948492	0.055492876	1.3458241	1.3986544	-0.10839198	1.334573	1.4147188	0.22378565	1.272476	1.4543149	0.056696518	1.1733207	1.0766283	-0.16681092	1.2163178	1.0628667	0.32693202	1.2669641	0.83515675	-0.22341627	1.4380454	0.89239581	0.33211376
415	1.656	1.8002775	0.10650162	-0.016113771	1.0537309	0.040685384	0.12111681	1.647337	0.08074675	-0.043256087	0.92558633	0.10132719	0.16102578	1.6700321	0.10894791	0.048909837	0.94885769	0.13618555	0.071146291	1.6001385	0.021289997	0.010028946	0.85173654	0.10822324	0.1098947	1.5219077	0.48232202	-0.076731645	1.1935684	0.48076488	0.22287946	1.5351878	0.4806512	0.047262761	1.1813374	0.4715367	0.09401165	1.3207934	0.84775988	-0.11257718	1.2729747	0.8756083	0.25824892	1.3919137	0.94039	-0.048979246	1.3832733	0.95218972	0.193349	1.21735	0.99344623	0.054890626	1.3517583	1.3976316	-0.10893558	1.3404912	1.4133898	0.22322898	1.2782591	1.4529765	0.056153291	1.1798739	1.0752894	-0.16738469	1.2217741	1.061337	0.32567135	1.2737707	0.83394142	-0.22413616	1.443306	0.89040545	0.33196086
416	1.66	1.8035337	0.10060584	-0.014303397	1.0540726	0.040856993	0.12121198	1.6502529	0.078509916	-0.042306483	0.92929053	0.10382999	0.1622602	1.6729168	0.10636881	0.050040424	0.95128324	0.13816581	0.071796834	1.6012243	0.020762285	0.010598116	0.85368678	0.11188777	0.11035461	1.5294485	0.48131325	-0.076832934	1.2008032	0.47942565	0.22329488	1.5431619	0.48033783	0.046730974	1.1886343	0.46990212	0.09454729	1.3280524	0.8468534	-0.11331357	1.2799471	0.87409781	0.25759096	1.3993078	0.93955296	-0.049526003	1.3903488	0.95084844	0.19282733	1.2244955	0.99210296	0.054296303	1.3577102	1.3966582	-0.10949993	1.3463995	1.4120996	0.22266117	1.2840454	1.4516762	0.05559258	1.1864396	1.073993	-0.16796799	1.227395	1.0599435	0.32451131	1.2806381	0.832772	-0.2248493	1.4485073	0.88839577	0.33181255
417	1.664	1.807158	0.094115004	-0.012435096	1.0544586	0.041061372	0.12136418	1.6534824	0.076828274	-0.041562382	0.9330679	0.10654958	0.16352426	1.6762228	0.10427039	0.050970106	0.95389742	0.14021016	0.07246823	1.6023578	0.02114382	0.011125645	0.85584217	0.11572528	0.1107658	1.5367684	0.48023983	-0.077187381	1.2072547	0.47762863	0.2232976	1.5508555	0.47976737	0.046242086	1.1960942	0.46819958	0.095100815	1.335644	0.84596338	-0.11407944	1.2870142	0.87258514	0.25687193	1.4066632	0.93876867	-0.049980002	1.3975002	0.94952994	0.19231131	1.2316216	0.99086859	0.053720118	1.3636795	1.3957222	-0.11008676	1.352298	1.4108557	0.22208679	1.289827	1.450447	0.05500643	1.193018	1.0727202	-0.16854753	1.2332368	1.058691	0.32347929	1.2875661	0.83164591	-0.22555468	1.4536381	0.88637026	0.33166511
418	1.668	1.8113199	0.087206339	-0.010501713	1.054881	0.041276532	0.12158369	1.6570693	0.075747299	-0.041138755	0.93646879	0.10937548	0.1646706	1.6800001	0.10265607	0.05155513	0.95669305	0.14232168	0.073176651	1.6036852	0.022382769	0.011478827	0.8582058	0.11972703	0.11117078	1.5438639	0.47920335	-0.077703395	1.2136592	0.47562779	0.22317249	1.5582704	0.4789684	0.045839282	1.2037012	0.46640453	0.095635093	1.3435685	0.84511159	-0.11486878	1.2941915	0.87107217	0.25609488	1.4139396	0.93807739	-0.050351474	1.404712	0.94822551	0.19180206	1.2386913	0.98979124	0.053154988	1.3696655	1.3948135	-0.11069844	1.3581962	1.409666	0.22151036	1.2956176	1.4493404	0.054386182	1.1996161	1.0714611	-0.16911219	1.2392598	1.0575408	0.32253286	1.2945582	0.83056088	-0.22625305	1.4586967	0.88433053	0.3315127
419	1.672	1.8158942	0.080259415	-0.0085972508	1.0553342	0.041476302	0.12191273	1.6608655	0.075095051	-0.041081736	0.93879261	0.11216086	0.16548059	1.6840106	0.10134754	0.051772751	0.95966812	0.14450994	0.073938995	1.6052156	0.024184434	0.011369231	0.86078894	0.12388828	0.11162447	1.5508823	0.47840313	-0.078276596	1.2206312	0.47373361	0.2232018	1.5654474	0.47807529	0.045526934	1.2114268	0.46449936	0.09610851	1.3517417	0.84432878	-0.11564946	1.3014619	0.86954485	0.25528373	1.4211259	0.93750285	-0.050685205	1.4119536	0.94693479	0.19129592	1.2456933	0.98889732	0.052595548	1.3756708	1.3939366	-0.11133817	1.3641065	1.4085357	0.2209374	1.3014534	1.4483969	0.053733852	1.2062408	1.0702107	-0.16966239	1.2454001	1.0564668	0.32161729	1.3016125	0.82951608	-0.22694604	1.4636947	0.88227806	0.33134961
420	1.676	1.8203871	0.073800653	-0.0069340552	1.0558215	0.04165334	0.12236957	1.6646347	0.074611553	-0.041352392	0.93938461	0.11478248	0.16573429	1.6878859	0.10016218	0.051696414	0.96282188	0.14679242	0.074769099	1.6068554	0.02619248	0.010463461	0.863614	0.12821146	0.11217108	1.5580399	0.47807174	-0.078869538	1.2284114	0.4721505	0.22355071	1.5724464	0.47729967	0.045265423	1.2192466	0.46248276	0.096492388	1.360074	0.84365907	-0.11639507	1.3087303	0.86799665	0.25447848	1.4282268	0.93705114	-0.051026643	1.4191891	0.94566821	0.19078521	1.2526404	0.98817574	0.052049477	1.3817012	1.3931078	-0.11200517	1.3700398	1.4074674	0.22037122	1.3073705	1.4476192	0.053073318	1.2128917	1.0689713	-0.17021356	1.2515976	1.055474	0.32069143	1.3087192	0.82851117	-0.22763437	1.4686484	0.88021857	0.3311696
421	1.68	1.8242217	0.068201655	-0.0057061408	1.0563693	0.041840384	0.1228708	1.6682205	0.074128997	-0.041862827	0.93902292	0.11734126	0.16563749	1.6913887	0.09904247	0.05140949	0.96616156	0.14917708	0.075675828	1.6085121	0.028115948	0.008710782	0.86670884	0.13270465	0.11282286	1.5655831	0.47835077	-0.079484339	1.2369753	0.47094546	0.22425542	1.5793151	0.47684947	0.045003353	1.2271626	0.46037482	0.096784472	1.3684572	0.84316106	-0.11709521	1.315871	0.86643937	0.25371825	1.4352543	0.93672937	-0.051393437	1.4263872	0.94444242	0.19026067	1.2595447	0.98757936	0.051521436	1.3877618	1.3923443	-0.11268974	1.3759967	1.40647	0.21981637	1.3133753	1.4469791	0.052435438	1.2195649	1.0677593	-0.17078663	1.2578028	1.054578	0.3197361	1.3158694	0.82754882	-0.22831554	1.4735721	0.87816142	0.33096405
422	1.684	1.827168	0.06333161	-0.0049222901	1.0570121	0.042085054	0.12323725	1.6715863	0.073623225	-0.042520145	0.93945669	0.1201341	0.165762	1.6945017	0.098020353	0.050970837	0.96972736	0.15163315	0.076658228	1.6101657	0.029735095	0.006540013	0.87010018	0.13738119	0.11355245	1.5737197	0.47921156	-0.080115628	1.2459077	0.469939	0.22509841	1.5860771	0.47684484	0.044702901	1.2352247	0.45821847	0.097021708	1.3767117	0.84290073	-0.11774835	1.3228664	0.86488533	0.25301584	1.4422306	0.93655259	-0.051784326	1.4335306	0.94327454	0.18971116	1.2663993	0.9870516	0.051011075	1.3938507	1.3916594	-0.11337298	1.3819496	1.4055714	0.21928336	1.3194307	1.4464322	0.051828161	1.2262622	1.0665988	-0.17139776	1.2639764	1.0537743	0.31875578	1.3230623	0.82663926	-0.22898436	1.4784678	0.87611424	0.33073115
